<svg xmlns="http://www.w3.org/2000/svg" viewBox="0 0 186 72" fill="none">
  <defs>
    <linearGradient id="kg" x1="0" y1="0" x2="186" y2="0" gradientUnits="userSpaceOnUse">
      <stop offset="0%" stop-color="#8B5CF6"/>
      <stop offset="45%" stop-color="#EC4899"/>
      <stop offset="100%" stop-color="#F59E0B"/>
    </linearGradient>
  </defs>
  <g fill="url(#kg)">
    <!-- k: stem 10px wide, diagonals meet at y=38 -->
    <path d="M4 8 L4 64 L14 64 L14 42 L16 39.5 L36.5 64 L49 64 L24 35.5 L47 8 L34.5 8 L14 35 L14 8 Z"/>
    <!-- u: smooth rounded bottom, 10px stems, gap of 8 from k -->
    <path d="M57 28 L57 49 C57 58 63.5 65 73.5 65 C83.5 65 90 58 90 49 L90 28 L80 28 L80 48.5 C80 52.5 77.5 55.5 73.5 55.5 C69.5 55.5 67 52.5 67 48.5 L67 28 Z"/>
    <!-- l: simple 10px wide bar, gap of 8 from u -->
    <path d="M102 8 L102 64 L112 64 L112 8 Z"/>
    <!-- r: stem + shoulder arc -->
    <path d="M124 28 L124 64 L134 64 L134 42.5 C134 36 138.5 32 144 32 L150 32 L150 23 L144 23 C138 23 134.5 26 133 30 L134 28 Z"/>
  </g>
</svg>